<?xml version="1.0" encoding="UTF-8"?>
<svg id="Layer_1" data-name="Layer 1" xmlns="http://www.w3.org/2000/svg" viewBox="0 0 19.5 19.5">
  <defs>
    <style>
      .cls-1 {
        fill: #b3b3b3;
      }
    </style>
  </defs>
  <path class="cls-1" d="M6,14.25V5.25c0-.2.08-.39.22-.53.14-.14.33-.22.53-.22h2.25V.75c0-.15.04-.29.13-.42.08-.12.2-.22.34-.28s.29-.07.43-.04c.15.03.28.1.38.21l9,9c.07.07.13.15.16.24.04.09.06.19.06.29s-.02.2-.06.29-.09.17-.16.24l-9,9c-.1.11-.24.18-.38.21-.15.03-.3.01-.43-.04-.14-.06-.25-.15-.34-.28-.08-.12-.13-.27-.13-.42v-3.75h-2.25c-.2,0-.39-.08-.53-.22-.14-.14-.22-.33-.22-.53ZM3.75,15c.2,0,.39-.08.53-.22.14-.14.22-.33.22-.53V5.25c0-.2-.08-.39-.22-.53-.14-.14-.33-.22-.53-.22s-.39.08-.53.22c-.14.14-.22.33-.22.53v9c0,.2.08.39.22.53.14.14.33.22.53.22ZM.75,15c.2,0,.39-.08.53-.22.14-.14.22-.33.22-.53V5.25c0-.2-.08-.39-.22-.53-.14-.14-.33-.22-.53-.22s-.39.08-.53.22c-.14.14-.22.33-.22.53v9c0,.2.08.39.22.53.14.14.33.22.53.22Z"/>
</svg>